# xmcd CD database file
#
# Track frame offsets:
#	150
#	15980
#	32505
#	47725
#	69247
#	85617
#	104307
#	122285
#	139585
#	146227
#	161645
#	168192
#	180192
#	193732
#	207312
#	220117
#	234940
#	248582
#	265280
#	280342
#	295507
#	317177
#
# Disc length: 4398 seconds
#
# Revision: 0
# Processed by: cddbd v1.4PL0 Copyright (c) Steve Scherf et al.
# Submitted via: CDex 1.50
#
DISCID=26112c16
DTITLE=Various Artist - The Best Of Velfarre 1997 [CD1]
DYEAR=1997
DGENRE=Salsa
TTITLE0=Rock It Down
TTITLE1=Tic Tic Tic
TTITLE2=Black And Rare Groove
TTITLE3=Runaway - Nuyorican Soul
TTITLE4=Cuba - El Mariachi
TTITLE5=Mueve La Cadera
TTITLE6=Free - Ultra Nate
TTITLE7=I'll Get Over You
TTITLE8=Up To No Good
TTITLE9=Summerlove - S-Connection
TTITLE10=Hey Ibiza, Hey Menorca
TTITLE11=Rock The Discothech
TTITLE12=Walking - AG Allstars
TTITLE13=Turn It Up and Down
TTITLE14=Ole', Ole' - Brazil '97
TTITLE15=Party People - Cubic 22
TTITLE16=Luv Song
TTITLE17=Never Lost His Hardcore
TTITLE18=Storm - Space Kittens
TTITLE19=Can U Feel It?
TTITLE20=I May Be Single
TTITLE21=Oh What A Night
EXTD=YEAR: 1997
EXTT0=
EXTT1=
EXTT2=
EXTT3=
EXTT4=
EXTT5=
EXTT6=
EXTT7=
EXTT8=
EXTT9=
EXTT10=
EXTT11=
EXTT12=
EXTT13=
EXTT14=
EXTT15=
EXTT16=
EXTT17=
EXTT18=
EXTT19=
EXTT20=
EXTT21=
PLAYORDER=
